<mxfile host="app.diagrams.net" modified="2021-01-10T12:31:33.380Z" agent="5.0 (Windows NT 10.0; Win64; x64) AppleWebKit/537.36 (KHTML, like Gecko) Chrome/87.0.4280.141 Safari/537.36" etag="KKA2baWimfxnL5YoM0Z3" version="13.10.9" type="github">
  <diagram id="4cFyjErOvzvpscptfe8b" name="Page-1">
    <mxGraphModel dx="2035" dy="614" grid="1" gridSize="10" guides="1" tooltips="1" connect="1" arrows="1" fold="1" page="1" pageScale="1" pageWidth="850" pageHeight="1100" math="0" shadow="0">
      <root>
        <mxCell id="0" />
        <mxCell id="1" parent="0" />
        <mxCell id="DU86xdA9OpCmwGyD7wXK-1" value="" style="rounded=0;whiteSpace=wrap;html=1;shadow=1;" vertex="1" parent="1">
          <mxGeometry x="110" y="140" width="630" height="510" as="geometry" />
        </mxCell>
        <mxCell id="DU86xdA9OpCmwGyD7wXK-9" style="edgeStyle=orthogonalEdgeStyle;rounded=0;orthogonalLoop=1;jettySize=auto;html=1;exitX=0.875;exitY=0.5;exitDx=0;exitDy=0;exitPerimeter=0;" edge="1" parent="1" source="DU86xdA9OpCmwGyD7wXK-2">
          <mxGeometry relative="1" as="geometry">
            <mxPoint x="100" y="190.16666666666674" as="targetPoint" />
          </mxGeometry>
        </mxCell>
        <mxCell id="DU86xdA9OpCmwGyD7wXK-2" value="&lt;b&gt;INTERNET&lt;/b&gt;" style="ellipse;shape=cloud;whiteSpace=wrap;html=1;shadow=1;fillColor=#ffe6cc;strokeColor=#d79b00;" vertex="1" parent="1">
          <mxGeometry x="-110" y="130" width="150" height="120" as="geometry" />
        </mxCell>
        <mxCell id="DU86xdA9OpCmwGyD7wXK-3" value="&lt;b&gt;&lt;font style=&quot;font-size: 14px&quot;&gt;Our Custom VPC&lt;/font&gt;&lt;/b&gt;" style="text;html=1;strokeColor=#6c8ebf;fillColor=#dae8fc;align=center;verticalAlign=middle;whiteSpace=wrap;rounded=0;shadow=1;" vertex="1" parent="1">
          <mxGeometry x="360" y="110" width="130" height="20" as="geometry" />
        </mxCell>
        <mxCell id="DU86xdA9OpCmwGyD7wXK-4" value="" style="rounded=0;whiteSpace=wrap;html=1;shadow=1;fillColor=#fff2cc;strokeColor=#d6b656;" vertex="1" parent="1">
          <mxGeometry x="150" y="300" width="230" height="320" as="geometry" />
        </mxCell>
        <mxCell id="DU86xdA9OpCmwGyD7wXK-5" value="" style="rounded=0;whiteSpace=wrap;html=1;shadow=1;fillColor=#dae8fc;strokeColor=#6c8ebf;" vertex="1" parent="1">
          <mxGeometry x="460" y="300" width="230" height="320" as="geometry" />
        </mxCell>
        <mxCell id="DU86xdA9OpCmwGyD7wXK-6" value="&lt;b&gt;&lt;font style=&quot;font-size: 14px&quot;&gt;Public Subnet&lt;/font&gt;&lt;/b&gt;" style="text;html=1;strokeColor=#d6b656;fillColor=#fff2cc;align=center;verticalAlign=middle;whiteSpace=wrap;rounded=0;shadow=1;" vertex="1" parent="1">
          <mxGeometry x="200" y="270" width="130" height="20" as="geometry" />
        </mxCell>
        <mxCell id="DU86xdA9OpCmwGyD7wXK-7" value="&lt;b&gt;&lt;font style=&quot;font-size: 14px&quot;&gt;Private Subnet&lt;/font&gt;&lt;/b&gt;" style="text;html=1;strokeColor=#6c8ebf;fillColor=#dae8fc;align=center;verticalAlign=middle;whiteSpace=wrap;rounded=0;shadow=1;" vertex="1" parent="1">
          <mxGeometry x="510" y="270" width="130" height="20" as="geometry" />
        </mxCell>
        <mxCell id="DU86xdA9OpCmwGyD7wXK-10" value="" style="rounded=0;whiteSpace=wrap;html=1;shadow=1;" vertex="1" parent="1">
          <mxGeometry x="160" y="315" width="210" height="90" as="geometry" />
        </mxCell>
        <mxCell id="DU86xdA9OpCmwGyD7wXK-11" value="" style="rounded=0;whiteSpace=wrap;html=1;shadow=1;" vertex="1" parent="1">
          <mxGeometry x="470" y="320" width="210" height="90" as="geometry" />
        </mxCell>
        <mxCell id="DU86xdA9OpCmwGyD7wXK-12" value="&lt;b&gt;&lt;font style=&quot;font-size: 13px&quot;&gt;Public Subnet Route Table&lt;/font&gt;&lt;/b&gt;" style="text;html=1;strokeColor=#666666;fillColor=#f5f5f5;align=center;verticalAlign=middle;whiteSpace=wrap;rounded=0;shadow=1;fontColor=#333333;" vertex="1" parent="1">
          <mxGeometry x="175" y="320" width="180" height="20" as="geometry" />
        </mxCell>
        <mxCell id="DU86xdA9OpCmwGyD7wXK-13" value="&lt;b&gt;&lt;font style=&quot;font-size: 13px&quot;&gt;Private Subnet Route Table&lt;/font&gt;&lt;/b&gt;" style="text;html=1;strokeColor=#666666;fillColor=#f5f5f5;align=center;verticalAlign=middle;whiteSpace=wrap;rounded=0;shadow=1;fontColor=#333333;" vertex="1" parent="1">
          <mxGeometry x="485" y="325" width="180" height="20" as="geometry" />
        </mxCell>
      </root>
    </mxGraphModel>
  </diagram>
</mxfile>
